<?xml version="1.0" standalone="no"?>
<!DOCTYPE svg PUBLIC "-//W3C//DTD SVG 20010904//EN"
 "http://www.w3.org/TR/2001/REC-SVG-20010904/DTD/svg10.dtd">
<svg version="1.0" xmlns="http://www.w3.org/2000/svg"
 width="730.000000pt" height="730.000000pt" viewBox="0 0 730.000000 730.000000"
 preserveAspectRatio="xMidYMid meet">
<metadata>
Created by potrace 1.14, written by Peter Selinger 2001-2017
</metadata>
<g transform="translate(0.000000,730.000000) scale(0.100000,-0.100000)"
fill="#000000" stroke="none">
<path d="M3712 6961 c-24 -32 -84 -100 -134 -152 -167 -175 -191 -204 -224
-274 -45 -95 -51 -168 -25 -276 11 -46 27 -102 36 -123 l17 -39 47 139 c70
207 146 363 196 404 17 14 18 13 11 -5 -13 -35 -146 -478 -146 -487 0 -14 22
1 96 67 78 69 174 186 209 254 66 132 70 287 11 451 -24 64 -40 100 -46 100
-3 -1 -24 -27 -48 -59z"/>
<path d="M2659 6498 c-60 -119 -81 -194 -85 -308 -4 -120 14 -191 76 -294 36
-61 168 -209 202 -227 18 -10 19 -8 14 18 -3 15 -8 46 -11 68 -4 22 -11 67
-17 100 -5 33 -12 74 -15 90 -4 29 -38 189 -49 230 -7 29 62 -117 98 -205 38
-95 74 -207 83 -259 4 -23 10 -43 14 -46 11 -6 56 80 75 143 22 75 16 192 -14
262 -20 46 -91 163 -111 180 -5 4 -62 87 -178 257 -20 29 -39 53 -43 53 -4 0
-22 -28 -39 -62z"/>
<path d="M4490 6408 c-185 -266 -208 -304 -229 -366 -27 -79 -27 -165 0 -245
31 -94 75 -165 76 -124 1 47 66 244 123 373 36 83 72 150 65 124 -3 -14 -8
-36 -11 -50 -3 -14 -7 -33 -10 -42 -3 -9 -6 -25 -8 -35 -10 -51 -36 -192 -40
-218 -20 -122 -25 -159 -21 -163 7 -8 126 111 172 173 118 157 149 300 103
480 -20 81 -92 245 -107 245 -4 0 -55 -68 -113 -152z"/>
<path d="M2012 6428 c-67 -161 -78 -297 -32 -392 23 -48 131 -166 151 -166 12
0 11 15 -31 250 -11 57 -18 105 -16 107 1 2 18 -41 36 -94 18 -54 43 -120 55
-148 12 -27 30 -79 41 -114 18 -63 18 -63 34 -41 53 80 67 209 31 298 -25 63
-38 84 -115 186 -33 44 -74 104 -92 133 l-32 53 -30 -72z"/>
<path d="M5231 6454 c-12 -20 -52 -77 -89 -128 -88 -119 -98 -136 -122 -197
-35 -89 -29 -181 18 -274 l25 -50 27 80 c15 44 33 94 40 110 6 17 30 80 52
140 35 100 41 101 23 5 -4 -25 -31 -175 -42 -237 -3 -20 -1 -33 5 -33 20 0
130 120 152 167 28 58 36 174 16 249 -18 70 -69 204 -77 204 -4 0 -17 -16 -28
-36z"/>
<path d="M3927 6151 c-51 -87 -191 -256 -360 -435 -179 -189 -217 -435 -105
-679 32 -69 57 -102 59 -76 3 65 19 160 35 209 94 281 175 477 205 496 8 4 9
3 5 -4 -4 -7 -9 -20 -11 -29 -2 -10 -12 -54 -24 -98 -24 -93 -77 -342 -85
-400 -4 -22 -10 -63 -15 -92 -10 -65 -6 -63 117 71 332 362 393 616 235 984
-19 45 -36 82 -37 82 -1 0 -10 -13 -19 -29z"/>
<path d="M1429 5818 c0 -7 -3 -22 -5 -33 -13 -52 -13 -323 0 -383 28 -131 94
-226 221 -320 59 -43 178 -116 210 -128 11 -5 -6 39 -51 127 -137 272 -175
354 -157 334 14 -15 210 -249 333 -397 21 -26 28 -22 35 15 20 108 5 210 -45
311 -38 76 -84 127 -180 196 -41 30 -77 57 -80 60 -3 4 -27 23 -53 43 -62 46
-165 135 -191 165 -22 25 -36 28 -37 10z"/>
<path d="M5821 5794 c-39 -40 -189 -163 -305 -249 -102 -75 -148 -124 -184
-199 -51 -104 -69 -214 -50 -300 15 -65 0 -75 152 109 55 66 102 122 105 125
4 3 24 27 46 54 22 27 50 60 62 75 l23 26 -18 -40 c-10 -22 -64 -131 -120
-242 -56 -112 -98 -203 -93 -203 12 0 170 97 226 140 119 89 191 197 214 320
10 52 8 331 -3 375 -2 11 -5 26 -5 33 -1 20 -15 14 -50 -24z"/>
<path d="M2333 5687 c-14 -23 -12 -338 3 -422 59 -328 254 -551 583 -669 41
-15 78 -25 82 -24 7 2 -219 418 -304 558 l-20 35 28 -25 c34 -31 77 -71 282
-270 88 -85 170 -164 182 -175 l22 -19 -2 91 c-3 137 -25 247 -68 332 -42 81
-102 131 -366 306 -143 95 -295 199 -337 233 -53 43 -79 58 -85 49z"/>
<path d="M4904 5657 c-27 -23 -61 -50 -75 -60 -72 -52 -179 -126 -214 -147
-119 -71 -316 -208 -357 -248 -93 -90 -137 -211 -146 -407 -5 -115 -4 -119 13
-105 10 8 85 80 168 160 207 201 281 272 308 295 l23 20 -15 -25 c-9 -14 -30
-50 -47 -80 -17 -30 -85 -152 -151 -270 -66 -118 -118 -216 -116 -218 8 -8
137 41 219 83 151 77 269 183 346 313 39 67 92 211 105 287 17 102 14 446 -4
444 -3 0 -29 -19 -57 -42z"/>
<path d="M848 5173 c-12 -21 -15 -262 -5 -369 15 -169 56 -289 140 -414 97
-145 259 -260 494 -350 84 -32 85 -37 -17 80 -121 138 -201 255 -257 378 -19
41 -36 81 -38 91 -2 9 -8 31 -14 49 -6 19 -6 32 0 32 12 0 225 -212 280 -280
86 -106 136 -176 199 -280 35 -58 66 -108 70 -113 3 -4 8 28 9 70 11 257 -6
384 -70 503 -55 103 -82 125 -398 325 -112 71 -292 199 -331 236 -41 38 -58
50 -62 42z"/>
<path d="M6410 5149 c-91 -78 -243 -185 -428 -303 -215 -137 -274 -188 -321
-276 -50 -94 -80 -245 -75 -377 1 -27 3 -83 4 -125 2 -43 4 -78 6 -78 1 0 17
26 35 58 50 88 124 198 197 292 68 88 303 330 320 330 16 0 -24 -118 -73 -215
-49 -98 -165 -260 -263 -368 -34 -37 -62 -69 -62 -71 0 -8 149 53 231 95 110
54 158 89 244 170 131 125 207 293 231 509 12 103 8 376 -5 385 -4 2 -22 -10
-41 -26z"/>
<path d="M3704 4726 c-225 -240 -259 -292 -258 -396 1 -68 29 -160 52 -168 6
-2 12 1 12 7 0 6 24 61 53 123 30 62 69 146 87 186 18 40 34 71 36 70 2 -3
-13 -92 -29 -178 -3 -14 -8 -43 -12 -65 -3 -22 -8 -50 -11 -63 -4 -20 -2 -22
13 -13 10 5 42 32 71 60 68 65 102 138 106 227 3 85 -28 284 -44 284 -4 0 -38
-33 -76 -74z"/>
<path d="M2077 4668 c-6 -69 -1 -406 7 -438 3 -14 8 -38 12 -55 8 -43 44 -144
65 -187 74 -146 208 -273 412 -388 65 -37 249 -121 254 -116 8 8 -238 460
-308 569 -46 69 -29 64 62 -21 178 -163 291 -324 359 -509 19 -53 29 -70 34
-58 14 37 21 127 20 260 -1 123 -4 149 -27 213 -35 101 -80 172 -157 249 -62
62 -104 92 -375 268 -114 74 -240 168 -314 234 -18 17 -35 31 -36 31 -2 0 -5
-24 -8 -52z"/>
<path d="M5180 4691 c-77 -72 -207 -167 -386 -282 -208 -134 -222 -144 -309
-229 -72 -70 -117 -142 -152 -242 -23 -64 -26 -90 -27 -213 -1 -141 5 -209 22
-255 8 -23 10 -20 26 32 51 175 212 402 402 564 61 52 76 56 42 12 -55 -73
-334 -586 -324 -596 9 -8 280 130 365 186 212 141 334 322 374 552 15 88 20
351 8 449 l-6 55 -35 -33z"/>
<path d="M3557 3949 c-59 -20 -110 -68 -142 -134 -54 -110 -54 -243 -2 -430
29 -102 49 -225 49 -295 0 -65 -24 -90 -84 -85 -24 2 -54 6 -68 9 -35 8 -71
16 -97 21 -55 10 -265 68 -333 92 -154 53 -245 97 -410 198 -52 32 -149 84
-215 116 -148 71 -509 219 -550 226 -33 5 -54 -11 -60 -44 -3 -20 22 -53 39
-53 7 0 56 -27 110 -60 54 -33 100 -60 103 -60 2 0 52 -35 111 -78 256 -187
505 -342 761 -474 223 -115 329 -196 430 -331 70 -93 141 -255 156 -355 3 -21
8 -49 10 -62 6 -27 6 -197 0 -245 -11 -98 -42 -205 -109 -385 -26 -68 -54
-153 -62 -189 -16 -68 -20 -269 -9 -401 4 -41 8 -87 9 -102 3 -35 2 -35 56
-42 261 -36 918 -17 921 27 0 7 3 21 6 32 2 11 6 112 8 225 4 236 0 258 -85
484 -28 75 -60 172 -70 215 -77 309 -18 604 167 833 95 117 204 198 398 295
245 123 485 272 786 489 48 35 142 94 210 133 68 39 127 77 131 84 11 20 -15
62 -40 65 -20 3 -242 -80 -427 -160 -119 -52 -256 -122 -385 -200 -228 -135
-361 -187 -675 -263 -152 -36 -226 -48 -250 -39 -27 11 -42 56 -38 114 5 89
21 182 42 248 80 251 50 457 -80 552 -63 45 -220 60 -312 29z"/>
<path d="M885 3905 c-38 -7 -131 -28 -205 -48 -74 -20 -162 -41 -196 -47 l-61
-12 61 -60 c254 -249 434 -283 748 -140 l63 29 -70 21 c-60 18 -149 43 -205
57 -8 2 -62 15 -120 28 -118 27 -109 35 33 31 101 -2 179 -15 320 -51 54 -14
100 -23 103 -21 7 7 -87 112 -133 147 -82 64 -206 88 -338 66z"/>
<path d="M6230 3906 c-102 -21 -180 -73 -258 -173 -35 -45 -30 -53 23 -33 103
39 459 82 495 60 6 -4 -37 -17 -96 -29 -58 -13 -145 -34 -193 -47 -47 -14 -97
-27 -109 -30 -13 -3 -38 -10 -55 -17 l-31 -13 100 -41 c127 -53 173 -65 261
-69 149 -6 267 52 439 215 68 65 71 80 16 81 -13 0 -110 22 -215 50 -205 53
-290 63 -377 46z"/>
<path d="M1288 3305 c-2 -2 -23 -6 -48 -8 -25 -3 -103 -22 -175 -42 -205 -57
-364 -93 -445 -101 -64 -6 -95 -10 -108 -13 -7 -2 86 -113 146 -174 111 -113
245 -191 392 -228 33 -8 107 -13 185 -13 156 1 277 28 449 101 97 42 106 48
90 60 -26 19 -127 49 -279 83 -175 39 -192 44 -176 54 15 10 200 11 261 1 38
-5 164 -31 259 -53 19 -4 22 -2 16 9 -114 194 -305 313 -522 324 -23 1 -44 1
-45 0z"/>
<path d="M5885 3295 c-123 -22 -237 -80 -325 -167 -48 -47 -123 -148 -116
-155 2 -2 55 8 117 22 145 33 279 45 401 34 66 -5 40 -14 -236 -79 -70 -16
-149 -39 -175 -51 l-46 -21 72 -33 c294 -136 572 -159 795 -66 131 55 263 161
364 293 24 31 44 60 44 65 0 5 -19 10 -42 12 -116 6 -218 28 -508 107 -186 51
-240 57 -345 39z"/>
<path d="M2439 2695 c-2 -1 -23 -5 -47 -9 -24 -3 -127 -37 -230 -76 -103 -39
-200 -73 -217 -76 -42 -7 -43 -11 -4 -47 244 -229 538 -259 767 -78 56 44 62
56 35 59 -10 1 -63 10 -118 20 l-100 19 45 13 c44 12 143 10 235 -6 l40 -7
-45 47 c-87 90 -180 135 -291 141 -37 2 -69 2 -70 0z"/>
<path d="M4689 2677 c-78 -27 -127 -58 -189 -123 l-45 -47 35 7 c78 15 196 18
240 6 l45 -13 -70 -14 c-97 -19 -138 -26 -152 -26 -23 -1 -14 -15 30 -50 112
-91 219 -129 352 -123 152 6 276 62 428 195 35 31 34 37 -8 45 -19 4 -76 23
-127 42 -335 128 -414 143 -539 101z"/>
<path d="M635 2625 c-38 -8 -125 -29 -192 -49 -104 -29 -189 -48 -227 -51 -27
-1 -10 -29 54 -88 85 -79 160 -130 243 -165 54 -23 76 -26 172 -26 95 0 119 4
177 26 37 15 93 44 125 64 l58 38 -30 8 c-16 5 -75 19 -130 32 l-100 24 55 2
c114 6 136 5 170 -2 100 -20 102 -20 90 2 -24 44 -127 134 -187 162 -74 35
-172 43 -278 23z"/>
<path d="M6450 2625 c-63 -17 -118 -47 -166 -92 -46 -43 -101 -113 -88 -113 5
1 36 6 69 13 33 7 83 12 110 11 149 -5 148 -4 10 -38 l-130 -31 45 -31 c217
-147 453 -136 660 31 48 38 149 139 144 144 -2 3 -12 6 -22 6 -50 5 -109 19
-217 50 -66 18 -142 39 -170 45 -73 17 -193 19 -245 5z"/>
<path d="M1430 2192 c-353 -95 -419 -111 -490 -123 l-74 -12 69 -64 c100 -92
240 -199 310 -238 207 -115 374 -104 690 45 l110 52 -55 19 c-50 18 -147 42
-210 53 -60 10 -170 40 -165 45 9 9 36 11 140 11 99 0 116 -2 197 -15 65 -11
70 -12 117 -25 23 -6 45 -9 47 -7 9 9 -141 160 -201 202 -87 63 -154 87 -255
91 -75 4 -102 0 -230 -34z"/>
<path d="M5541 2215 c-88 -25 -159 -73 -265 -177 -54 -54 -97 -100 -95 -102 2
-2 42 4 89 14 145 30 357 42 405 23 22 -8 -16 -19 -180 -53 -114 -24 -225 -58
-225 -69 0 -9 12 -15 151 -76 256 -113 391 -127 559 -56 63 26 183 100 225
138 11 10 40 35 65 55 25 20 72 61 105 91 l60 55 -50 7 c-54 7 -235 50 -355
84 -285 81 -387 94 -489 66z"/>
<path d="M2730 1887 c-121 -41 -259 -168 -324 -300 -19 -40 -65 -115 -100
-167 -36 -52 -62 -98 -58 -102 12 -11 109 -16 154 -8 24 5 59 11 78 14 57 10
193 43 220 54 52 21 118 105 172 218 17 38 46 92 64 121 31 48 31 51 13 56
-11 3 -34 1 -51 -5 -60 -21 -163 -76 -182 -97 -11 -11 -28 -21 -40 -21 -20 0
-20 0 -1 14 11 8 48 41 82 74 35 32 92 73 127 91 63 31 85 54 64 67 -6 4 -43
8 -82 10 -53 2 -87 -2 -136 -19z"/>
<path d="M4375 1901 c-16 -3 -29 -10 -27 -14 1 -4 2 -11 2 -16 0 -4 28 -22 63
-39 62 -31 181 -127 173 -141 -3 -4 10 -13 27 -21 24 -11 27 -15 15 -18 -10
-2 -35 11 -55 28 -21 17 -67 44 -103 60 -69 30 -81 33 -118 31 l-23 -1 19 -27
c11 -16 41 -71 68 -123 114 -226 130 -238 373 -290 95 -21 254 -31 267 -17 3
3 -25 52 -63 109 -38 56 -84 134 -103 171 -62 123 -199 252 -310 293 -48 17
-156 25 -205 15z"/>
<path d="M5960 1287 c-82 -60 -352 -220 -505 -298 -457 -233 -977 -385 -1455
-424 -41 -4 -91 -8 -110 -11 -41 -5 -423 -4 -494 1 -74 5 -178 15 -206 20 -14
2 -47 7 -75 10 -113 14 -250 40 -415 79 -222 53 -547 172 -785 286 -144 69
-359 191 -500 282 -134 86 -135 87 -95 42 87 -96 238 -239 334 -317 97 -77
248 -185 300 -213 11 -6 65 -37 119 -67 316 -182 751 -329 1096 -372 30 -4 61
-8 70 -10 105 -20 548 -28 706 -12 108 10 275 35 360 53 39 9 79 17 90 20 11
2 61 15 110 29 50 14 97 27 105 29 34 9 208 70 250 88 25 10 63 27 85 36 299
127 639 351 873 576 97 94 201 207 190 206 -1 0 -23 -15 -48 -33z"/>
</g>
</svg>
